<svg xmlns="http://www.w3.org/2000/svg" width="1026" height="1022" viewBox="0 0 1026 1022">
<g>
<path d="M 1026.00 1022.00 L 0.00 1022.00 L 86.75 1021.90 C163.16,1021.82 172.49,1021.65 165.00,1020.46 C152.57,1018.50 139.84,1014.53 128.50,1009.09 C107.96,999.24 100.34,990.79 101.21,978.84 C101.90,969.28 107.35,965.00 118.84,965.00 C125.64,965.00 125.97,965.12 134.92,971.00 C153.70,983.33 166.30,987.91 183.71,988.74 C210.53,990.02 226.00,981.33 226.00,964.99 C226.00,950.85 217.00,944.89 179.15,933.98 C129.43,919.65 108.87,904.76 103.44,879.12 C99.28,859.52 104.37,842.55 118.39,829.24 C129.66,818.54 143.73,812.59 165.24,809.41 C184.58,806.55 208.03,808.53 226.73,814.59 C244.39,820.32 259.42,829.98 262.64,837.69 C265.72,845.04 263.33,853.56 257.00,857.82 C254.02,859.82 252.54,860.12 247.00,859.81 C241.63,859.50 238.42,858.46 228.50,853.81 C214.93,847.43 209.13,845.61 197.07,843.91 C187.51,842.56 171.25,843.26 163.45,845.35 C151.07,848.68 145.00,855.14 145.00,864.98 C145.00,879.06 152.32,883.97 190.59,895.54 C227.63,906.74 241.37,912.94 252.98,923.69 C262.28,932.30 266.60,940.80 268.23,953.68 C272.77,989.68 248.15,1015.24 203.50,1020.87 C199.12,1021.42 231.85,1021.75 291.00,1021.75 C346.66,1021.75 382.83,1021.40 379.00,1020.90 C369.01,1019.61 353.74,1015.46 344.87,1011.62 C321.64,1001.58 310.65,990.13 312.31,977.73 C313.46,969.13 319.04,965.01 329.54,965.00 C335.85,965.00 337.16,965.36 342.04,968.43 C357.75,978.31 361.53,980.42 368.22,983.01 C380.03,987.60 390.72,989.34 403.45,988.75 C423.89,987.80 435.04,980.96 437.50,967.86 C439.31,958.21 432.14,948.74 418.80,943.19 C414.65,941.46 402.53,937.53 391.88,934.44 C337.20,918.63 317.79,903.41 313.98,873.35 C310.95,849.47 322.27,829.76 345.50,818.47 C375.14,804.07 419.06,804.69 451.67,819.97 C462.38,824.99 468.42,829.23 472.15,834.34 C474.94,838.17 475.15,839.03 474.81,845.20 C474.51,850.64 473.98,852.40 471.97,854.55 C464.84,862.17 456.78,861.97 439.47,853.73 C421.62,845.23 414.89,843.69 395.50,843.68 C377.70,843.66 370.31,845.24 363.36,850.54 C356.53,855.75 354.23,865.50 357.91,873.62 C361.15,880.75 367.95,884.73 387.57,890.97 C440.51,907.82 447.99,910.83 460.68,920.42 C468.36,926.23 475.10,935.34 477.55,943.26 C479.80,950.50 480.55,965.52 479.05,973.23 C475.89,989.46 464.59,1003.29 447.89,1011.35 C438.01,1016.12 426.83,1019.39 415.37,1020.87 C411.08,1021.42 446.51,1021.76 509.50,1021.78 C594.52,1021.81 609.38,1021.62 603.45,1020.54 C564.87,1013.53 537.10,988.97 526.52,952.50 C522.70,939.34 521.81,922.59 522.18,871.24 C522.49,827.62 522.55,826.40 524.66,822.50 C533.71,805.72 555.85,805.75 564.31,822.56 C565.63,825.17 565.91,833.74 566.23,882.06 C566.59,936.91 566.66,938.69 568.78,945.07 C574.92,963.51 589.69,976.43 609.21,980.42 C618.69,982.36 622.56,982.38 631.41,980.50 C650.16,976.53 664.05,964.91 671.18,947.24 C673.48,941.53 673.49,941.23 674.00,883.42 L 674.50 825.34 L 677.52 820.46 C686.65,805.69 708.86,806.86 716.10,822.50 C717.83,826.24 717.96,830.07 717.96,881.00 C717.97,930.31 717.80,936.36 716.11,944.50 C712.20,963.40 704.39,978.47 691.63,991.76 C675.83,1008.22 657.48,1017.48 633.00,1021.33 C632.98,1021.34 632.97,1021.34 632.97,1021.34 C632.97,1021.56 681.97,1021.74 743.00,1021.76 C838.36,1021.79 854.33,1021.60 847.79,1020.50 C812.05,1014.49 783.69,990.90 772.44,957.83 C767.26,942.58 767.00,938.92 767.02,880.64 L 767.02 876.82 C767.04,830.77 767.04,823.04 770.85,818.55 C771.72,817.52 772.79,816.67 774.11,815.56 C779.36,811.13 783.62,809.74 790.61,810.19 C798.21,810.67 803.85,814.19 807.81,820.93 L 810.50 825.50 L 811.02 883.50 C811.53,939.98 811.60,941.65 813.72,947.25 C819.76,963.23 832.35,974.67 849.05,979.36 C876.52,987.08 904.91,973.71 915.18,948.22 C917.47,942.53 917.49,942.17 917.99,884.50 C918.49,827.47 918.54,826.43 920.66,822.50 C925.08,814.31 932.10,810.00 941.02,810.00 C949.01,810.00 956.18,814.61 960.14,822.30 C962.02,825.96 962.08,828.20 961.78,884.80 L 961.46 943.50 L 958.72 952.29 C947.24,989.16 919.63,1013.69 882.00,1020.47 C875.38,1021.66 883.42,1021.83 950.25,1021.91 L 1026.00 1022.00 ZM 33.35 1018.92 C27.32,1020.59 21.93,1020.18 16.50,1017.63 C10.62,1014.87 8.82,1013.03 6.08,1006.98 C4.08,1002.59 4.04,1000.81 4.02,915.62 C4.01,849.71 4.30,827.74 5.23,824.62 C5.94,822.25 8.23,818.72 10.63,816.32 C22.09,804.85 42.28,809.64 46.86,824.92 C48.55,830.57 48.47,999.70 46.77,1005.38 C45.19,1010.67 38.40,1017.52 33.35,1018.92 ZM 0.08 889.25 L 0.00 1022.00 L 0.00 0.00 L 0.05 374.25 C0.09,744.41 0.11,748.45 2.01,743.58 C7.24,730.21 23.88,723.11 36.50,728.87 C44.55,732.55 52.00,743.90 52.00,752.50 C52.00,761.48 44.62,772.20 35.82,775.98 C22.71,781.62 6.48,774.30 1.59,760.54 C0.33,756.99 0.15,772.71 0.08,889.25 ZM 1026.00 928.61 C1026.00,840.28 1025.91,835.23 1024.25,835.36 C1022.77,835.48 1022.42,834.36 1022.00,828.00 L 1021.50 820.50 L 1019.13 827.50 C1017.82,831.35 1016.35,834.93 1015.87,835.46 C1014.49,836.95 1012.56,834.21 1009.90,827.00 L 1007.50 820.50 L 1007.00 828.00 C1006.72,832.12 1006.16,835.39 1005.75,835.25 C1005.34,835.11 1004.55,835.00 1004.00,835.00 C1003.40,835.00 1003.00,830.83 1003.00,824.50 L 1003.00 814.00 L 1005.90 814.00 C1008.60,814.00 1008.99,814.52 1011.53,821.48 C1013.03,825.59 1014.54,828.79 1014.88,828.57 C1015.23,828.36 1016.61,824.99 1017.97,821.09 C1020.22,814.59 1020.66,814.00 1023.21,814.00 L 1026.00 814.00 L 1026.00 928.61 ZM 991.00 826.50 C991.00,833.75 990.68,836.00 989.67,836.00 C987.31,836.00 987.00,834.83 987.00,825.83 L 987.00 817.00 L 984.00 817.00 C981.00,814.28 982.61,814.00 989.50,814.00 C996.39,814.00 998.00,814.28 998.00,815.50 C998.00,816.55 996.94,817.00 994.50,817.00 L 991.00 817.00 Z" fill="rgb(1,1,1)"/>
<path d="M 531.00 689.11 C514.31,691.35 476.07,692.37 460.74,690.99 C413.82,686.76 374.50,675.78 333.50,655.46 C298.59,638.16 271.67,618.79 243.97,591.05 C232.83,579.89 215.37,560.61 221.33,566.05 C222.90,567.48 225.68,564.94 257.24,533.30 C276.06,514.44 292.21,499.00 293.14,499.00 C294.07,499.00 295.06,499.56 295.34,500.25 C295.62,500.94 295.88,500.09 295.92,498.37 C295.96,496.65 296.70,494.67 297.55,493.96 C298.40,493.26 298.85,491.96 298.55,491.09 C298.26,490.22 301.01,492.88 304.68,497.00 C323.43,518.11 346.13,537.50 365.49,548.94 C451.81,599.92 554.30,594.62 634.50,535.01 C647.09,525.66 671.30,501.50 680.71,488.91 C711.32,447.95 727.55,402.38 729.64,351.50 C732.36,285.21 706.18,219.74 657.74,171.73 C651.76,165.81 644.41,159.11 641.41,156.84 C635.65,152.50 635.38,151.62 639.77,151.55 C641.67,151.51 642.58,150.90 642.83,149.50 C643.02,148.40 656.49,134.14 672.77,117.81 C697.93,92.55 702.62,88.26 704.18,89.09 C705.76,89.94 706.00,89.66 706.00,86.92 C706.00,84.22 706.30,83.84 708.08,84.31 C709.61,84.71 710.01,84.47 709.60,83.41 C707.53,78.01 729.82,98.30 745.47,116.06 C793.81,170.91 822.86,236.33 831.14,309.00 C833.12,326.32 832.84,369.20 830.64,386.50 C822.52,450.36 798.86,508.40 761.13,557.00 C704.10,630.45 623.49,676.72 531.00,689.11 ZM 505.58 519.94 C466.70,523.72 425.54,513.18 392.89,491.09 C387.18,487.22 380.92,482.70 379.00,481.05 C375.79,478.30 375.69,478.05 377.75,478.03 C378.99,478.01 380.00,478.47 380.00,479.05 C380.00,480.47 384.93,476.80 384.97,475.35 C385.01,473.73 432.64,426.00 434.22,425.99 C434.92,425.98 436.40,424.45 437.50,422.58 L 439.50 419.18 L 449.50 424.07 C462.11,430.23 472.64,433.01 486.05,433.71 C526.79,435.85 563.28,409.20 575.64,368.29 C577.99,360.53 578.30,357.79 578.31,345.00 C578.33,327.87 576.56,319.85 569.57,305.31 C565.82,297.52 565.36,295.94 566.57,294.94 C567.36,294.29 568.00,293.12 568.00,292.34 C568.00,291.57 579.94,279.00 594.54,264.41 C617.38,241.59 621.39,237.99 623.28,238.59 C625.24,239.21 625.33,239.10 624.12,237.64 C623.10,236.42 623.07,236.00 623.98,236.00 C624.74,236.00 624.96,235.33 624.54,234.25 C623.14,230.58 630.36,238.77 636.15,247.41 C662.48,286.67 671.58,336.77 661.05,384.50 C657.65,399.91 647.72,423.78 638.81,437.95 C609.46,484.63 560.83,514.55 505.58,519.94 Z" fill="rgb(226,64,19)"/>
<path d="M 141.00 0.00 L 1026.00 0.00 L 766.25 0.17 C624.90,0.27 510.96,0.50 510.96,0.68 C510.96,0.68 510.97,0.68 511.00,0.69 C577.39,5.64 640.86,29.18 693.20,68.27 C700.78,73.93 708.08,79.85 715.11,86.02 C711.16,82.79 708.87,81.51 709.60,83.41 C710.01,84.47 709.61,84.71 708.08,84.31 C706.30,83.84 706.00,84.22 706.00,86.92 C706.00,89.66 705.76,89.94 704.18,89.09 C702.62,88.26 697.93,92.55 672.77,117.81 C656.49,134.14 643.02,148.40 642.83,149.50 C642.58,150.90 641.67,151.51 639.77,151.55 C635.38,151.62 635.65,152.50 641.41,156.84 C642.72,157.84 644.87,159.67 647.36,161.93 C641.21,156.52 635.14,152.30 620.46,142.49 C586.99,120.13 548.53,107.26 505.33,103.96 C472.34,101.44 432.95,107.51 401.68,119.93 C319.01,152.77 261.60,227.63 250.94,316.50 C249.44,328.95 249.45,358.36 250.94,371.00 C257.28,424.47 281.15,473.85 319.19,512.24 C314.18,507.33 309.31,502.22 304.68,497.00 C301.01,492.88 298.26,490.22 298.55,491.09 C298.85,491.96 298.40,493.26 297.55,493.96 C296.70,494.67 295.96,496.65 295.92,498.37 C295.88,500.09 295.62,500.94 295.34,500.25 C295.06,499.56 294.07,499.00 293.14,499.00 C292.21,499.00 276.06,514.44 257.24,533.30 C225.68,564.94 222.90,567.48 221.33,566.05 C217.64,562.68 222.93,568.79 230.14,576.58 C223.00,568.96 216.76,561.88 213.07,557.04 C170.99,501.78 147.19,439.46 142.02,371.00 C141.39,362.56 141.00,290.50 141.00,178.75 ZM 616.70 223.37 C623.20,230.14 628.73,236.79 633.68,243.87 C628.52,236.73 623.33,231.09 624.54,234.25 C624.96,235.33 624.74,236.00 623.98,236.00 C623.07,236.00 623.10,236.42 624.12,237.64 C625.33,239.10 625.24,239.21 623.28,238.59 C621.39,237.99 617.38,241.59 594.54,264.41 C579.94,279.00 568.00,291.57 568.00,292.34 C568.00,293.12 567.36,294.29 566.57,294.94 C565.37,295.94 565.81,297.50 569.48,305.12 C562.92,292.48 551.09,278.97 539.40,270.93 C533.05,266.56 519.82,260.61 511.50,258.38 C501.63,255.73 477.43,255.72 467.50,258.36 C459.18,260.57 446.05,266.51 439.33,271.09 C422.09,282.85 408.61,302.26 403.40,322.81 C400.58,333.92 400.13,352.25 402.42,363.02 C408.12,389.93 426.55,412.74 451.00,424.79 C450.50,424.55 450.00,424.31 449.50,424.07 L 439.50 419.18 L 437.50 422.58 C436.40,424.45 434.92,425.98 434.22,425.99 C432.64,426.00 385.01,473.73 384.97,475.35 C384.93,476.80 380.00,480.47 380.00,479.05 C380.00,478.47 378.99,478.01 377.75,478.03 C375.69,478.05 375.79,478.30 379.00,481.05 C380.92,482.70 387.18,487.22 392.89,491.09 C401.49,496.90 410.67,501.92 420.25,506.08 C372.36,485.50 335.60,444.94 320.83,394.50 C315.18,375.20 313.72,362.99 314.30,340.00 C314.88,317.26 316.43,307.67 322.57,289.00 C327.09,275.23 337.37,254.87 345.77,243.01 C354.02,231.37 373.62,211.35 384.79,203.15 C408.06,186.07 436.23,174.52 464.50,170.47 C479.64,168.30 503.23,168.57 518.04,171.09 C556.84,177.68 589.41,194.94 616.70,223.37 ZM 531.00 689.11 C569.04,684.02 605.07,673.19 638.27,657.10 C611.83,670.01 583.55,679.61 554.00,685.40 C532.74,689.56 519.20,691.06 497.17,691.36 C510.13,690.97 523.03,690.18 531.00,689.11 ZM 803.81 485.01 C817.20,454.29 826.22,421.26 830.64,386.50 C828.20,405.73 824.69,423.30 819.91,440.22 C815.55,455.62 810.16,470.58 803.81,485.01 ZM 501.21 433.18 C502.77,432.97 504.29,432.72 505.73,432.42 C519.20,429.64 531.23,424.44 541.50,417.13 C529.71,425.74 515.93,431.35 501.21,433.18 ZM 660.34 302.92 C666.88,329.31 667.15,356.83 661.05,384.50 C667.06,357.26 666.67,329.25 660.34,302.92 ZM 494.86 583.71 C506.36,583.35 518.78,582.20 529.50,580.39 C566.75,574.13 602.88,558.51 634.50,535.02 C592.26,566.41 543.84,582.74 494.86,583.71 ZM 254.68 601.39 C263.37,609.46 272.09,616.79 281.11,623.56 C276.49,620.13 271.92,616.55 267.37,612.82 C263.90,609.96 259.50,605.98 254.68,601.39 ZM 652.90 167.05 C654.54,168.60 656.18,170.19 657.74,171.73 C676.25,190.08 691.51,210.98 703.15,233.49 C691.35,210.72 675.81,189.58 656.89,170.94 C655.44,169.52 654.13,168.23 652.90,167.05 ZM 347.49 536.77 C355.33,542.56 363.47,547.84 371.90,552.61 C369.76,551.42 367.62,550.19 365.49,548.94 C359.72,545.53 353.66,541.42 347.49,536.77 ZM 505.58 519.94 C493.07,521.15 481.23,521.00 468.88,519.38 C481.12,520.90 493.46,521.12 505.58,519.94 ZM 397.19 679.89 C375.56,674.05 354.98,666.11 333.53,655.47 C354.77,666.00 375.56,674.02 397.19,679.89 ZM 428.34 575.53 C437.33,577.93 446.55,579.84 455.96,581.26 C446.71,579.90 437.49,578.00 428.34,575.53 ZM 438.70 688.42 C444.11,689.20 449.62,689.88 455.23,690.46 C451.68,690.14 448.16,689.73 444.16,689.19 C442.33,688.94 440.50,688.69 438.70,688.42 ZM 577.02 326.40 C577.99,331.72 578.32,337.49 578.31,345.00 C578.32,337.55 577.96,331.72 577.02,326.40 Z" fill="rgb(239,126,7)"/>
<path d="M 0.08 889.25 C0.15,772.71 0.33,756.99 1.59,760.54 C6.48,774.30 22.71,781.62 35.82,775.98 C44.62,772.20 52.00,761.48 52.00,752.50 C52.00,743.90 44.55,732.55 36.50,728.87 C23.88,723.11 7.24,730.21 2.01,743.58 C0.11,748.45 0.09,744.41 0.05,374.25 L 0.00 0.00 L 70.50 0.00 L 141.00 0.00 L 141.00 178.75 C141.00,290.50 141.39,362.56 142.02,371.00 C147.19,439.46 170.99,501.78 213.07,557.04 C223.31,570.47 253.12,601.10 267.37,612.82 C287.95,629.73 309.08,643.36 333.50,655.46 C369.77,673.44 403.53,683.73 444.16,689.19 C457.45,690.98 465.44,691.39 487.00,691.41 C515.43,691.44 529.65,690.16 554.00,685.40 C681.05,660.53 784.65,565.00 819.91,440.22 C824.69,423.30 828.20,405.73 830.64,386.50 C832.84,369.20 833.12,326.32 831.14,309.00 C820.08,211.96 771.07,126.43 693.20,68.27 C640.86,29.18 577.39,5.64 511.00,0.69 C508.52,0.50 623.39,0.27 766.25,0.17 L 1026.00 0.00 L 1026.00 407.00 L 1026.00 814.00 L 1023.21 814.00 C1020.66,814.00 1020.22,814.59 1017.97,821.09 C1016.61,824.99 1015.23,828.36 1014.88,828.57 C1014.54,828.79 1013.03,825.59 1011.53,821.48 C1008.99,814.52 1008.60,814.00 1005.90,814.00 L 1003.00 814.00 L 1003.00 824.50 C1003.00,830.83 1003.40,835.00 1004.00,835.00 C1004.55,835.00 1005.34,835.11 1005.75,835.25 C1006.16,835.39 1006.72,832.12 1007.00,828.00 L 1007.50 820.50 L 1009.90 827.00 C1012.56,834.21 1014.49,836.95 1015.87,835.46 C1016.35,834.93 1017.82,831.35 1019.13,827.50 L 1021.50 820.50 L 1022.00 828.00 C1022.42,834.36 1022.77,835.48 1024.25,835.36 C1025.91,835.23 1026.00,840.28 1026.00,928.61 L 1026.00 1022.00 L 950.25 1021.91 C883.42,1021.83 875.38,1021.66 882.00,1020.47 C919.63,1013.69 947.24,989.16 958.72,952.29 L 961.46 943.50 L 961.78 884.80 C962.08,828.20 962.02,825.96 960.14,822.30 C956.18,814.61 949.01,810.00 941.02,810.00 C932.10,810.00 925.08,814.31 920.66,822.50 C918.54,826.43 918.49,827.47 917.99,884.50 C917.49,942.17 917.47,942.53 915.18,948.22 C904.91,973.71 876.52,987.08 849.05,979.36 C832.35,974.67 819.76,963.23 813.72,947.25 C811.60,941.65 811.53,939.98 811.02,883.50 L 810.50 825.50 L 807.81 820.93 C803.85,814.19 798.21,810.67 790.61,810.19 C783.62,809.74 779.36,811.13 774.11,815.56 C766.89,821.64 767.05,820.18 767.02,880.64 C767.00,938.92 767.26,942.58 772.44,957.83 C783.69,990.90 812.05,1014.49 847.79,1020.50 C854.33,1021.60 838.36,1021.79 743.00,1021.76 C681.12,1021.74 631.62,1021.55 633.00,1021.33 C657.48,1017.48 675.83,1008.22 691.63,991.76 C704.39,978.47 712.20,963.40 716.11,944.50 C717.80,936.36 717.97,930.31 717.96,881.00 C717.96,830.07 717.83,826.24 716.10,822.50 C708.86,806.86 686.65,805.69 677.52,820.46 L 674.50 825.34 L 674.00 883.42 C673.49,941.23 673.48,941.53 671.18,947.24 C664.05,964.91 650.16,976.53 631.41,980.50 C622.56,982.38 618.69,982.36 609.21,980.42 C589.69,976.43 574.92,963.51 568.78,945.07 C566.66,938.69 566.59,936.91 566.23,882.06 C565.91,833.74 565.63,825.17 564.31,822.56 C555.85,805.75 533.71,805.72 524.66,822.50 C522.55,826.40 522.49,827.62 522.18,871.24 C521.81,922.59 522.70,939.34 526.52,952.50 C537.10,988.97 564.87,1013.53 603.45,1020.54 C609.38,1021.62 594.52,1021.81 509.50,1021.78 C446.51,1021.76 411.08,1021.42 415.37,1020.87 C426.83,1019.39 438.01,1016.12 447.89,1011.35 C464.59,1003.29 475.89,989.46 479.05,973.23 C480.55,965.52 479.80,950.50 477.55,943.26 C475.10,935.34 468.36,926.23 460.68,920.42 C447.99,910.83 440.51,907.82 387.57,890.97 C367.95,884.73 361.15,880.75 357.91,873.62 C354.23,865.50 356.53,855.75 363.36,850.54 C370.31,845.24 377.70,843.66 395.50,843.68 C414.89,843.69 421.62,845.23 439.47,853.73 C456.78,861.97 464.84,862.17 471.97,854.55 C473.98,852.40 474.51,850.64 474.81,845.20 C475.15,839.03 474.94,838.17 472.15,834.34 C468.42,829.23 462.38,824.99 451.67,819.97 C419.06,804.69 375.14,804.07 345.50,818.47 C322.27,829.76 310.95,849.47 313.98,873.35 C317.79,903.41 337.20,918.63 391.88,934.44 C402.53,937.53 414.65,941.46 418.80,943.19 C432.14,948.74 439.31,958.21 437.50,967.86 C435.04,980.96 423.89,987.80 403.45,988.75 C390.72,989.34 380.03,987.60 368.22,983.01 C361.53,980.42 357.75,978.31 342.04,968.43 C337.16,965.36 335.85,965.00 329.54,965.00 C319.04,965.01 313.46,969.13 312.31,977.73 C310.65,990.13 321.64,1001.58 344.87,1011.62 C353.74,1015.46 369.01,1019.61 379.00,1020.90 C382.83,1021.40 346.66,1021.75 291.00,1021.75 C231.85,1021.75 199.12,1021.42 203.50,1020.87 C248.15,1015.24 272.77,989.68 268.23,953.68 C266.60,940.80 262.28,932.30 252.98,923.69 C241.37,912.94 227.63,906.74 190.59,895.54 C152.32,883.97 145.00,879.06 145.00,864.98 C145.00,855.14 151.07,848.68 163.45,845.35 C171.25,843.26 187.51,842.56 197.07,843.91 C209.13,845.61 214.93,847.43 228.50,853.81 C238.42,858.46 241.63,859.50 247.00,859.81 C252.54,860.12 254.02,859.82 257.00,857.82 C263.33,853.56 265.72,845.04 262.64,837.69 C259.42,829.98 244.39,820.32 226.73,814.59 C208.03,808.53 184.58,806.55 165.24,809.41 C143.73,812.59 129.66,818.54 118.39,829.24 C104.37,842.55 99.28,859.52 103.44,879.12 C108.87,904.76 129.43,919.65 179.15,933.98 C217.00,944.89 226.00,950.85 226.00,964.99 C226.00,981.33 210.53,990.02 183.71,988.74 C166.30,987.91 153.70,983.33 134.92,971.00 C125.97,965.12 125.64,965.00 118.84,965.00 C107.35,965.00 101.90,969.28 101.21,978.84 C100.34,990.79 107.96,999.24 128.50,1009.09 C139.84,1014.53 152.57,1018.50 165.00,1020.46 C172.49,1021.65 163.16,1021.82 86.75,1021.90 L 0.00 1022.00 L 0.08 889.25 ZM 33.35 1018.92 C38.40,1017.52 45.19,1010.67 46.77,1005.38 C48.47,999.70 48.55,830.57 46.86,824.92 C42.28,809.64 22.09,804.85 10.63,816.32 C8.23,818.72 5.94,822.25 5.23,824.62 C4.30,827.74 4.01,849.71 4.02,915.62 C4.04,1000.81 4.08,1002.59 6.08,1006.98 C8.82,1013.03 10.62,1014.87 16.50,1017.63 C21.93,1020.18 27.32,1020.59 33.35,1018.92 ZM 991.00 826.50 L 991.00 817.00 L 994.50 817.00 C996.94,817.00 998.00,816.55 998.00,815.50 C998.00,814.28 996.39,814.00 989.50,814.00 C982.61,814.00 981.00,814.28 981.00,815.50 C981.00,816.50 982.00,817.00 984.00,817.00 L 987.00 817.00 L 987.00 825.83 C987.00,834.83 987.31,836.00 989.67,836.00 C990.68,836.00 991.00,833.75 991.00,826.50 ZM 473.50 583.32 C413.68,578.24 361.12,554.18 319.97,513.03 C281.47,474.53 257.32,424.84 250.94,371.00 C249.45,358.36 249.44,328.95 250.94,316.50 C261.60,227.63 319.01,152.77 401.68,119.93 C432.95,107.51 472.34,101.44 505.33,103.96 C548.53,107.26 586.99,120.13 620.46,142.49 C641.98,156.87 644.99,159.22 656.89,170.94 C706.05,219.37 732.38,284.72 729.64,351.50 C727.55,402.38 711.32,447.95 680.71,488.91 C671.30,501.50 647.09,525.66 634.50,535.01 C602.88,558.51 566.75,574.13 529.50,580.39 C511.49,583.42 488.69,584.61 473.50,583.32 ZM 505.58 519.94 C560.83,514.55 609.46,484.63 638.81,437.95 C647.72,423.78 657.65,399.91 661.05,384.50 C670.11,343.44 665.12,302.71 646.47,265.50 C638.34,249.28 629.33,236.53 616.70,223.37 C589.41,194.94 556.84,177.68 518.04,171.09 C503.23,168.57 479.64,168.30 464.50,170.47 C436.23,174.52 408.06,186.07 384.79,203.15 C373.62,211.35 354.02,231.37 345.77,243.01 C337.37,254.87 327.09,275.23 322.57,289.00 C316.43,307.67 314.88,317.26 314.30,340.00 C313.72,362.99 315.18,375.20 320.83,394.50 C338.73,455.63 388.92,502.24 452.08,516.38 C470.87,520.59 487.53,521.69 505.58,519.94 ZM 472.00 432.06 C437.44,424.76 409.66,397.21 402.42,363.02 C400.13,352.25 400.58,333.92 403.40,322.81 C408.61,302.26 422.09,282.85 439.33,271.09 C446.05,266.51 459.18,260.57 467.50,258.36 C477.43,255.72 501.63,255.73 511.50,258.38 C519.82,260.61 533.05,266.56 539.40,270.93 C551.76,279.43 564.28,294.05 570.55,307.29 C576.57,320.00 578.33,328.54 578.31,345.00 C578.30,357.79 577.99,360.53 575.64,368.29 C565.38,402.27 540.28,425.28 505.73,432.42 C495.85,434.46 482.70,434.32 472.00,432.06 Z" fill="rgb(254,254,254)"/>
</g>
</svg>