<svg xmlns="http://www.w3.org/2000/svg" width="1806" height="581" viewBox="0 0 1806 581">
<g>
<path d="M 0.13 399.75 L 0.00 581.00 L 0.00 0.00 L 0.12 100.75 C0.19,164.05 0.57,199.64 1.14,196.50 C1.63,193.75 2.20,188.12 2.40,184.00 C2.84,175.03 5.51,161.33 8.12,154.71 C9.15,152.08 10.00,148.84 10.00,147.52 C10.00,144.44 14.04,133.21 19.73,120.50 C49.20,54.61 113.76,8.73 186.52,1.96 C193.10,1.34 198.68,0.65 198.91,0.42 L 198.91 0.42 C198.91,0.19 154.34,0.00 99.67,0.00 L 1806.00 0.00 L 1010.75 0.12 C565.68,0.19 221.48,0.61 221.48,1.09 C221.48,1.10 221.48,1.10 221.50,1.10 C224.80,1.57 231.32,2.45 236.00,3.04 C240.68,3.64 247.65,4.84 251.50,5.71 C261.66,8.02 282.33,14.95 283.51,16.45 C284.07,17.16 286.08,18.08 287.97,18.49 C292.02,19.38 306.18,26.22 314.02,31.08 C339.54,46.88 357.42,63.93 377.50,91.64 C385.92,103.26 400.13,133.43 401.92,143.50 C402.31,145.70 403.11,148.40 403.69,149.50 C405.52,152.94 408.86,168.97 410.46,181.97 C412.24,196.37 412.48,222.66 410.95,235.00 C408.63,253.71 406.76,265.35 404.90,272.74 C403.82,277.01 402.32,283.20 401.57,286.50 C399.68,294.77 392.27,316.49 389.38,322.22 C388.07,324.81 387.00,327.71 387.00,328.66 C387.00,331.86 364.32,375.78 360.47,380.03 C359.66,380.93 359.00,381.93 359.00,382.26 C359.00,382.60 356.99,385.71 354.54,389.19 C352.09,392.66 348.03,398.50 345.52,402.17 C334.02,418.97 305.89,447.50 289.68,458.81 C271.72,471.33 258.13,478.92 247.50,482.33 C232.88,487.03 229.75,487.83 221.28,489.00 C203.55,491.46 181.29,488.66 164.00,481.80 C98.96,455.99 38.03,379.28 12.85,291.50 C7.43,272.59 1.83,241.72 2.05,231.98 C2.11,229.51 1.73,225.48 1.20,223.00 C0.59,220.08 0.21,282.26 0.13,399.75 ZM 1806.00 485.89 C1806.00,395.67 1805.91,390.83 1804.25,391.61 C1803.29,392.07 1794.18,392.53 1784.00,392.65 C1768.35,392.82 1765.23,392.61 1763.75,391.27 C1762.28,389.94 1762.00,387.89 1762.00,378.51 C1762.00,372.36 1761.76,367.09 1761.47,366.80 C1761.18,366.51 1758.26,368.89 1755.00,372.08 C1747.85,379.07 1739.50,385.36 1733.74,388.09 C1731.41,389.19 1727.75,391.01 1725.61,392.12 C1718.19,395.99 1704.68,398.26 1692.50,397.68 C1649.49,395.66 1618.83,367.36 1609.49,321.04 C1604.86,298.09 1605.37,275.39 1611.01,253.47 C1615.69,235.30 1623.21,221.06 1634.45,209.13 C1642.43,200.64 1657.05,191.00 1661.93,191.00 C1663.03,191.00 1665.68,190.09 1667.82,188.98 C1674.89,185.29 1685.24,183.76 1699.50,184.30 C1712.98,184.81 1719.16,186.14 1728.69,190.58 C1731.54,191.91 1734.12,193.00 1734.42,193.00 C1736.52,193.00 1747.71,201.57 1753.58,207.66 C1757.47,211.71 1760.95,214.71 1761.33,214.34 C1761.70,213.97 1762.00,191.28 1762.00,163.92 C1762.00,136.55 1762.27,113.45 1762.61,112.58 C1763.13,111.21 1765.92,111.00 1783.41,111.00 C1797.78,111.00 1803.95,111.35 1804.80,112.20 C1805.73,113.13 1806.00,100.80 1806.00,56.70 L 1806.00 485.89 ZM 847.36 469.12 C846.15,470.12 841.10,470.57 828.11,470.81 C813.07,471.09 810.17,470.90 808.25,469.51 L 806.00 467.89 L 806.00 329.57 C806.00,213.26 806.22,191.06 807.38,190.10 C808.34,189.31 814.82,189.04 828.63,189.23 L 848.50 189.50 L 849.11 202.00 C849.45,208.88 849.78,214.70 849.86,214.95 C849.94,215.20 852.28,212.85 855.06,209.73 C864.69,198.92 881.70,189.34 898.00,185.54 C909.57,182.85 931.44,183.83 942.50,187.54 C957.93,192.71 964.26,196.46 975.29,206.97 C981.44,212.83 992.30,227.52 992.58,230.36 C992.65,230.99 992.76,232.51 992.85,233.75 C992.93,234.99 993.66,236.00 994.46,236.00 C995.32,236.00 996.42,237.75 997.13,240.25 C997.80,242.59 998.66,244.95 999.04,245.50 C999.42,246.05 1000.03,248.50 1000.41,250.95 C1000.78,253.40 1001.46,255.87 1001.91,256.45 C1003.10,257.95 1004.97,271.73 1005.68,284.21 C1006.57,299.55 1003.35,324.97 999.42,333.65 C998.64,335.38 998.00,337.50 998.00,338.36 C998.00,339.22 996.81,341.02 995.36,342.37 C993.54,344.05 992.89,345.47 993.27,346.91 C993.59,348.16 992.94,350.30 991.63,352.25 C990.43,354.04 988.19,357.65 986.67,360.27 C982.46,367.50 968.51,381.11 960.47,385.84 C948.13,393.09 930.55,398.00 917.00,398.00 C907.51,397.99 893.55,395.28 885.28,391.84 C874.78,387.47 866.48,381.78 858.16,373.22 C852.47,367.37 850.62,365.99 849.93,367.08 C849.43,367.87 849.02,390.62 849.02,418.13 C849.00,462.92 848.84,467.89 847.36,469.12 ZM 1393.50 396.46 C1382.80,398.28 1365.27,398.32 1355.45,396.54 C1322.53,390.56 1297.09,372.04 1282.49,343.43 C1274.74,328.23 1271.19,313.79 1270.36,294.00 C1269.47,272.86 1273.01,256.02 1282.24,237.50 C1295.21,211.50 1316.97,194.47 1347.00,186.83 C1361.84,183.05 1389.27,183.37 1404.44,187.50 C1415.59,190.53 1429.55,197.05 1436.98,202.69 C1444.13,208.12 1453.47,217.51 1453.80,219.60 C1453.96,220.64 1456.11,223.44 1458.56,225.82 C1464.05,231.12 1470.32,242.34 1470.18,246.60 C1470.11,248.44 1470.89,250.58 1472.09,251.87 C1473.93,253.84 1475.14,258.03 1478.02,272.39 C1480.80,286.26 1477.68,319.08 1472.67,328.70 C1471.75,330.46 1471.00,332.61 1471.00,333.48 C1471.00,335.38 1464.49,348.51 1461.82,352.00 C1453.11,363.36 1449.70,367.28 1444.35,372.03 C1428.66,385.99 1414.25,392.91 1393.50,396.46 ZM 191.24 456.49 C199.92,458.61 214.69,458.34 222.64,455.90 C258.74,444.85 279.91,408.31 282.55,352.47 C285.67,286.65 256.79,206.80 211.13,155.00 C206.40,149.64 205.87,149.79 198.65,158.59 C185.40,174.74 173.13,193.08 164.53,209.56 C160.81,216.68 157.38,222.93 156.89,223.45 C156.40,223.97 156.00,225.15 156.00,226.08 C156.00,227.00 154.82,230.39 153.38,233.63 C150.39,240.33 141.43,265.50 139.89,271.50 C133.42,296.82 131.10,312.52 130.31,336.50 C129.47,362.18 132.27,383.68 138.87,402.22 C143.12,414.15 144.85,417.64 151.43,427.60 C160.80,441.79 175.91,452.75 191.24,456.49 ZM 1089.00 391.00 C1087.15,392.85 1085.67,393.00 1068.66,393.00 C1052.14,393.00 1050.14,392.82 1048.65,391.17 C1047.12,389.48 1047.01,378.61 1047.25,250.42 L 1047.50 111.50 L 1068.00 111.23 C1086.39,110.98 1088.62,111.13 1089.75,112.67 C1090.71,113.99 1091.00,125.97 1091.00,164.70 L 1091.00 215.02 L 1098.59 208.76 C1112.21,197.54 1119.94,192.92 1127.39,191.56 C1129.54,191.17 1131.88,190.27 1132.60,189.55 C1133.32,188.83 1137.19,187.40 1141.20,186.37 C1151.33,183.77 1177.75,183.74 1186.50,186.31 C1199.15,190.02 1206.63,194.28 1213.91,201.89 C1218.20,206.38 1225.00,218.77 1225.00,222.10 C1225.00,223.01 1225.79,225.50 1226.75,227.63 C1228.36,231.19 1228.52,237.77 1228.79,310.38 C1229.06,384.53 1228.97,389.37 1227.32,391.20 C1225.67,393.02 1224.29,393.13 1206.25,392.89 C1193.75,392.72 1186.62,392.24 1186.03,391.53 C1185.50,390.90 1184.96,360.93 1184.77,321.47 C1184.38,244.58 1184.59,247.00 1177.34,236.29 C1171.22,227.25 1160.97,223.00 1145.27,223.00 C1140.11,223.00 1132.66,223.72 1128.70,224.60 C1117.71,227.03 1100.19,237.23 1093.66,244.99 L 1091.00 248.15 L 1091.00 318.58 C1091.00,387.67 1090.96,389.04 1089.00,391.00 ZM 309.30 392.27 C308.82,395.48 308.98,395.95 310.37,395.41 C311.26,395.07 312.00,394.48 312.00,394.10 C312.00,393.72 314.74,389.83 318.09,385.46 C327.26,373.50 335.33,360.94 345.03,343.50 C346.87,340.20 348.82,337.20 349.37,336.83 C349.92,336.46 350.91,334.21 351.57,331.83 C352.24,329.45 354.22,324.12 355.98,320.00 C366.08,296.32 373.69,270.53 377.68,246.50 C380.46,229.68 380.21,187.41 377.24,173.50 C372.79,152.65 366.27,137.33 356.24,124.17 C348.77,114.35 341.56,108.65 329.19,102.79 L 318.89 97.90 L 305.19 97.85 C289.10,97.79 286.28,98.20 275.00,102.23 C260.60,107.39 244.43,116.30 232.09,125.88 L 229.68 127.75 L 232.08 131.12 C233.40,132.98 236.51,136.78 238.99,139.58 C245.67,147.10 254.47,158.73 254.59,160.21 C254.65,160.92 254.76,162.26 254.85,163.19 C254.93,164.12 256.25,165.63 257.78,166.53 C261.12,168.50 264.42,173.71 264.12,176.56 C263.99,177.85 264.81,179.10 266.35,179.92 C267.70,180.64 269.62,183.09 270.61,185.37 C271.61,187.64 273.44,190.87 274.67,192.55 C277.54,196.42 286.03,214.64 285.30,215.36 C284.34,216.33 286.00,221.00 287.30,221.00 C288.46,221.00 294.00,233.47 294.00,236.08 C294.00,236.69 294.63,238.39 295.40,239.85 C296.18,241.31 298.05,246.55 299.56,251.50 C301.07,256.45 302.89,262.36 303.60,264.64 C304.32,266.91 305.63,272.96 306.52,278.09 C307.40,283.21 308.33,287.73 308.57,288.12 C309.39,289.44 311.89,305.37 313.07,316.77 C314.62,331.66 313.74,367.45 311.53,379.50 C310.62,384.45 309.62,390.20 309.30,392.27 ZM 101.37 394.34 C103.40,396.14 103.46,396.13 104.32,393.53 C104.97,391.59 104.80,390.43 103.68,389.19 C102.79,388.21 101.47,382.92 100.54,376.64 C89.18,299.99 118.96,203.79 174.39,138.11 C180.69,130.65 182.11,128.40 181.31,127.11 C179.63,124.41 164.09,114.33 153.50,109.08 C136.58,100.68 129.67,98.81 113.47,98.24 C96.50,97.64 91.67,98.53 79.19,104.58 C71.52,108.31 68.47,110.53 61.83,117.23 C54.53,124.61 53.09,126.75 46.39,140.29 C42.32,148.50 39.00,156.15 39.00,157.27 C39.00,158.40 38.36,161.61 37.57,164.41 C33.25,179.82 32.67,185.11 32.69,209.00 C32.71,229.78 33.03,234.41 35.43,249.00 C38.82,269.64 41.27,279.05 48.57,299.50 C50.93,306.10 53.42,313.08 54.10,315.00 C54.79,316.92 58.42,324.85 62.17,332.61 C65.93,340.37 69.00,347.01 69.00,347.37 C69.00,349.85 96.97,390.42 101.37,394.34 ZM 649.57 396.96 C642.83,398.14 626.80,398.15 619.83,396.98 C603.11,394.15 587.56,384.93 581.12,374.00 C576.23,365.72 574.76,362.41 572.72,355.17 C570.62,347.67 570.56,345.77 570.23,269.66 C569.98,211.15 570.19,191.48 571.07,190.41 C572.68,188.47 611.44,188.32 612.69,190.25 C613.14,190.94 613.72,223.00 614.00,261.50 L 614.50 331.50 L 617.91 338.78 C624.60,353.06 635.47,359.00 654.89,359.00 C671.67,359.00 687.21,352.48 700.19,340.00 L 708.00 332.49 L 708.00 261.95 C708.00,208.41 708.29,191.11 709.20,190.20 C710.05,189.35 716.09,189.00 730.00,189.00 C743.91,189.00 749.95,189.35 750.80,190.20 C751.72,191.12 752.00,214.77 752.00,290.55 C752.00,386.57 751.94,389.74 750.11,391.40 C748.44,392.91 745.95,393.09 729.54,392.92 C714.86,392.77 710.56,392.42 709.43,391.29 C708.36,390.22 708.00,387.09 708.00,378.99 C708.00,373.01 707.66,367.91 707.24,367.65 C706.82,367.39 702.45,370.52 697.53,374.61 C686.74,383.58 680.62,387.33 678.08,386.52 C676.31,385.96 673.00,388.18 673.00,389.91 C673.00,390.34 670.19,391.48 666.75,392.45 C663.31,393.43 659.38,394.61 658.00,395.07 C656.62,395.53 652.83,396.38 649.57,396.96 ZM 1364.00 358.31 C1365.38,358.54 1369.88,358.78 1374.00,358.85 C1401.79,359.30 1424.05,340.41 1431.60,310.00 C1434.15,299.74 1433.88,280.68 1431.04,269.50 C1427.55,255.80 1422.91,247.66 1413.06,238.00 C1408.00,233.04 1402.97,229.02 1400.95,228.35 C1399.05,227.72 1395.47,226.37 1393.00,225.35 C1389.31,223.84 1385.79,223.50 1373.50,223.50 L 1358.50 223.50 L 1349.91 227.70 C1333.24,235.86 1321.88,251.34 1317.41,272.00 C1315.29,281.76 1315.59,300.74 1318.02,310.85 C1324.06,336.06 1342.04,354.62 1364.00,358.31 ZM 889.29 357.56 C898.32,359.62 912.77,358.82 921.02,355.80 C934.12,351.01 945.53,340.81 952.29,327.85 C953.82,324.91 955.46,321.83 955.93,321.00 C959.49,314.72 961.32,286.81 959.02,274.09 C954.78,250.74 941.72,233.60 922.50,226.19 C914.08,222.94 895.48,222.00 887.25,224.41 C872.64,228.68 854.27,240.70 850.63,248.37 C849.21,251.36 849.00,256.86 849.00,291.04 L 849.00 330.28 L 853.71 335.80 C862.41,345.98 876.61,354.67 889.29,357.56 ZM 1695.00 357.17 C1704.33,359.82 1718.73,359.09 1729.35,355.45 C1739.09,352.10 1750.33,344.70 1756.96,337.25 L 1762.00 331.60 L 1762.00 249.30 L 1755.75 242.98 C1742.51,229.58 1726.93,222.96 1708.71,222.99 C1685.32,223.02 1668.44,234.09 1658.09,256.21 C1653.71,265.57 1653.17,267.56 1652.06,278.29 C1649.63,301.93 1654.27,321.91 1665.96,338.13 C1672.08,346.62 1682.99,353.77 1695.00,357.17 ZM 1562.56 391.58 C1559.93,393.50 1525.27,393.65 1522.68,391.75 C1521.10,390.58 1521.00,381.26 1521.24,251.00 L 1521.50 111.50 L 1541.61 111.23 C1559.40,110.99 1561.88,111.15 1563.11,112.63 C1564.28,114.04 1564.50,135.99 1564.50,252.23 C1564.50,387.61 1564.46,390.19 1562.56,391.58 ZM 202.68 102.94 C203.65,104.07 205.00,105.00 205.67,105.00 C206.34,105.00 209.96,102.68 213.70,99.83 C240.14,79.75 267.89,68.13 294.26,66.08 C299.62,65.66 304.32,65.01 304.70,64.64 C305.77,63.56 303.19,61.59 293.67,56.17 C286.39,52.03 273.73,46.11 263.50,42.07 C258.26,40.00 248.70,37.58 237.00,35.36 C228.13,33.68 213.11,32.86 199.18,33.28 C183.07,33.77 177.60,34.60 155.00,39.97 C151.34,40.84 131.16,49.28 124.83,52.58 C116.89,56.74 106.00,63.44 106.00,64.18 C106.00,65.28 109.12,65.79 119.54,66.41 C134.81,67.32 155.64,73.77 171.87,82.62 C181.06,87.63 200.62,100.53 202.68,102.94 ZM 1806.00 581.00 L 0.00 581.00 L 96.75 580.84 C148.79,580.75 190.06,580.54 190.06,580.35 C190.06,580.35 190.04,580.34 190.00,580.34 C172.72,578.65 154.77,575.20 153.70,573.37 C153.21,572.54 151.17,572.00 148.50,572.00 C140.97,572.00 135.02,568.35 132.41,562.13 C128.41,552.58 133.36,542.15 142.71,540.39 C146.15,539.75 150.37,540.46 164.50,544.09 C177.11,547.32 187.22,548.38 206.00,548.43 C226.14,548.48 234.70,547.47 253.36,542.85 C265.93,539.74 268.75,539.86 274.81,543.80 C278.55,546.24 281.30,552.67 280.73,557.67 C280.20,562.43 276.11,568.64 272.65,569.95 C260.82,574.42 244.72,577.92 226.50,579.95 C226.48,579.96 226.47,579.96 226.47,579.96 C226.47,580.39 578.82,580.80 1012.75,580.87 L 1806.00 581.00 Z" fill="rgb(73,202,103)"/>
<path d="M 1467.19 237.91 C1464.89,233.53 1461.61,228.76 1458.56,225.82 C1456.11,223.44 1453.96,220.64 1453.80,219.60 C1453.58,218.21 1449.36,213.58 1444.46,209.03 C1450.44,214.16 1456.00,219.71 1459.19,224.05 C1462.01,227.89 1464.69,232.54 1467.19,237.91 ZM 252.36 156.42 C259.86,166.71 267.38,178.41 270.19,184.49 C269.13,182.49 267.53,180.55 266.35,179.92 C264.81,179.10 263.99,177.85 264.12,176.56 C264.42,173.71 261.12,168.50 257.78,166.53 C256.25,165.63 254.93,164.12 254.85,163.19 C254.76,162.26 254.65,160.92 254.59,160.21 C254.55,159.76 253.71,158.36 252.36,156.42 ZM 952.29 327.85 C951.57,329.23 950.79,330.59 949.97,331.90 C950.41,331.17 950.82,330.43 951.21,329.68 C954.46,323.44 957.87,312.65 959.31,304.49 C958.60,311.98 957.42,318.38 955.93,321.00 C955.46,321.83 953.82,324.91 952.29,327.85 ZM 192.26 1.38 C194.90,0.38 165.81,0.00 96.56,0.00 L 99.67 0.00 C154.34,0.00 198.91,0.19 198.91,0.42 L 198.91 0.42 C198.75,0.58 196.07,0.96 192.26,1.38 ZM 101.37 394.34 C101.07,394.07 100.66,393.63 100.15,393.04 C102.13,395.26 103.02,395.60 102.98,394.25 C102.97,393.84 102.08,387.42 100.99,380.00 C100.77,378.50 100.57,377.00 100.37,375.48 C100.43,375.87 100.48,376.26 100.54,376.64 C101.47,382.92 102.79,388.21 103.68,389.19 C104.80,390.43 104.97,391.59 104.32,393.53 C103.46,396.13 103.40,396.14 101.37,394.34 ZM 659.61 394.56 C661.46,393.98 664.24,393.17 666.75,392.45 C670.19,391.48 673.00,390.34 673.00,389.91 C673.00,388.18 676.31,385.96 678.08,386.52 C679.33,386.92 681.44,386.22 684.55,384.33 C677.12,389.08 669.98,391.93 659.61,394.56 ZM 1120.07 193.93 C1120.53,193.70 1121.01,193.45 1121.50,193.20 C1128.43,189.69 1134.88,187.43 1142.39,186.09 C1141.97,186.18 1141.58,186.27 1141.20,186.37 C1137.19,187.40 1133.32,188.83 1132.60,189.55 C1131.88,190.27 1129.54,191.17 1127.39,191.56 C1125.04,191.99 1122.66,192.75 1120.07,193.93 ZM 4.01 170.80 C6.30,157.32 8.63,148.65 12.21,139.00 C12.39,138.54 12.56,138.08 12.73,137.61 C11.01,142.40 10.00,145.98 10.00,147.52 C10.00,148.84 9.15,152.08 8.12,154.71 C6.62,158.50 5.11,164.60 4.01,170.80 ZM 282.50 207.68 C285.94,215.08 289.60,223.52 291.84,229.31 C290.15,225.26 287.98,221.00 287.30,221.00 C286.00,221.00 284.34,216.33 285.30,215.36 C285.61,215.06 284.32,211.74 282.50,207.68 ZM 1661.93 191.00 C1657.17,191.00 1643.15,200.17 1635.05,208.49 C1646.09,197.05 1659.50,189.60 1675.08,186.24 C1672.35,186.96 1669.94,187.87 1667.82,188.98 C1665.68,190.09 1663.03,191.00 1661.93,191.00 ZM 0.89 227.82 C0.99,224.10 1.09,222.47 1.20,223.00 C1.73,225.48 2.11,229.51 2.05,231.98 C1.88,239.25 4.96,258.27 8.78,275.32 C5.32,260.45 2.77,244.91 0.89,227.82 ZM 992.27 229.35 C995.54,234.96 997.78,240.02 997.96,242.89 C997.69,242.08 997.40,241.16 997.13,240.25 C996.42,237.75 995.32,236.00 994.46,236.00 C993.66,236.00 992.93,234.99 992.85,233.75 C992.76,232.51 992.65,230.99 992.58,230.36 C992.56,230.11 992.45,229.77 992.27,229.35 ZM 43.93 80.20 C58.66,60.88 76.63,44.81 98.35,31.31 C104.45,27.52 111.23,23.93 118.36,20.64 C89.24,34.39 63.61,54.83 43.93,80.20 ZM 164.55 576.67 C156.54,575.13 149.46,573.36 144.28,571.59 C145.62,571.86 147.03,572.00 148.50,572.00 C151.17,572.00 153.21,572.54 153.70,573.37 C154.20,574.23 158.42,575.45 164.55,576.67 ZM 0.78 192.81 C1.72,185.69 2.59,179.60 3.44,174.26 C2.91,177.73 2.54,181.11 2.40,184.00 C2.20,188.12 1.63,193.75 1.14,196.50 C1.01,197.21 0.89,195.94 0.78,192.81 ZM 997.73 339.30 C997.07,341.24 995.26,345.07 993.09,349.24 C993.35,348.33 993.42,347.52 993.27,346.91 C992.89,345.47 993.54,344.05 995.36,342.37 C996.40,341.41 997.30,340.21 997.73,339.30 ZM 274.82 12.74 C283.91,15.87 292.91,19.76 301.64,24.31 C295.83,21.42 290.27,19.00 287.97,18.49 C286.08,18.08 284.07,17.16 283.51,16.45 C283.05,15.86 279.53,14.41 274.82,12.74 ZM 344.26 53.60 C353.89,62.13 362.53,71.42 369.79,81.19 C371.66,83.71 373.17,85.74 374.42,87.45 C364.36,73.97 354.73,63.09 344.26,53.60 ZM 0.13 399.75 C0.16,355.32 0.23,318.80 0.34,290.72 C0.26,320.95 0.20,359.56 0.16,401.75 L 0.00 581.00 ZM 1473.41 253.94 C1472.99,253.02 1472.56,252.37 1472.09,251.87 C1470.89,250.58 1470.11,248.44 1470.18,246.60 C1470.20,245.77 1469.99,244.67 1469.58,243.41 C1470.92,246.70 1472.20,250.22 1473.41,253.94 ZM 959.58 278.25 C956.31,253.42 942.94,234.07 922.50,226.19 C941.72,233.60 954.78,250.74 959.02,274.09 C959.24,275.35 959.43,276.74 959.58,278.25 ZM 1612.53 333.12 C1609.32,322.76 1607.27,311.32 1606.50,298.93 C1605.87,288.93 1606.42,278.51 1607.98,268.37 C1605.40,285.61 1605.90,303.25 1609.49,321.04 C1610.33,325.22 1611.34,329.24 1612.53,333.12 ZM 174.39 138.11 C146.61,171.03 125.27,211.61 112.33,253.55 C125.36,211.05 146.74,170.87 174.39,138.11 ZM 0.12 100.75 L 0.00 0.00 L 0.15 98.25 C0.19,123.96 0.26,147.15 0.36,164.21 C0.23,148.30 0.15,126.88 0.12,100.75 ZM 379.26 228.68 C379.41,223.73 379.46,217.60 379.44,209.50 C379.43,204.11 379.40,199.73 379.34,196.08 C379.74,206.54 379.72,218.44 379.26,228.68 ZM 391.04 115.73 C397.08,127.69 400.79,137.13 401.92,143.50 C400.95,138.07 396.38,126.79 391.04,115.73 ZM 153.62 7.79 C163.63,5.05 173.38,3.17 182.10,2.42 C172.43,3.53 162.91,5.34 153.62,7.79 ZM 1398.22 186.13 C1390.51,184.76 1381.09,184.11 1371.96,184.20 C1381.74,183.97 1390.19,184.55 1398.22,186.13 ZM 231.60 126.26 C230.59,127.09 230.00,127.68 230.00,127.93 C230.00,128.38 232.72,131.89 239.64,140.32 C239.42,140.07 239.21,139.82 238.99,139.58 C236.51,136.78 233.40,132.98 232.08,131.12 L 229.68 127.75 ZM 254.71 111.34 C248.13,114.93 238.84,120.87 233.73,124.62 C240.06,119.87 247.29,115.31 254.71,111.34 ZM 1476.88 313.04 C1477.66,308.24 1478.27,302.93 1478.64,297.65 C1478.46,302.14 1478.13,306.16 1477.62,309.00 C1477.35,310.47 1477.11,311.81 1476.88,313.04 ZM 1477.95 272.05 C1477.06,267.62 1476.33,264.18 1475.69,261.48 C1476.15,263.12 1476.60,264.79 1477.04,266.50 C1477.40,267.89 1477.70,269.80 1477.95,272.05 ZM 87.50 376.02 C78.65,363.42 69.00,348.82 69.00,347.37 C69.00,348.56 78.46,363.06 87.50,376.02 ZM 990.69 353.69 C989.59,355.66 988.48,357.57 987.43,359.28 C986.71,360.45 985.82,361.72 984.81,363.06 C985.54,362.06 986.17,361.12 986.67,360.27 C987.85,358.23 989.46,355.60 990.69,353.69 ZM 133.11 547.27 C134.00,545.65 135.19,544.21 136.66,543.05 C138.74,541.42 140.62,540.48 143.43,540.28 C143.18,540.31 142.95,540.35 142.71,540.39 C138.46,541.19 135.12,543.78 133.11,547.27 ZM 276.30 101.77 C270.48,103.87 263.82,106.71 257.95,109.65 C263.68,106.74 269.47,104.21 275.00,102.23 C275.45,102.07 275.88,101.92 276.30,101.77 ZM 1100.23 207.42 C1106.41,202.36 1109.93,199.70 1113.99,197.27 C1110.10,199.71 1105.64,203.02 1100.23,207.42 ZM 137.46 568.62 C136.94,568.30 136.50,567.98 136.16,567.66 C133.87,565.54 132.36,562.78 131.62,559.82 C131.83,560.59 132.09,561.36 132.41,562.13 C133.53,564.79 135.26,566.98 137.46,568.62 ZM 1174.78 184.70 C1180.19,184.93 1183.45,185.41 1186.50,186.31 C1183.88,185.54 1179.66,185.00 1174.78,184.70 ZM 1693.06 184.20 C1695.34,184.15 1697.65,184.18 1700.00,184.28 C1704.85,184.48 1708.78,184.81 1712.29,185.36 C1708.69,184.81 1704.63,184.49 1699.50,184.30 C1697.26,184.22 1695.11,184.18 1693.06,184.20 ZM 975.29 206.97 C970.51,202.41 966.61,199.12 962.46,196.44 C966.60,199.12 970.49,202.39 975.24,206.92 C978.17,209.71 981.30,213.38 984.28,217.34 C981.20,213.35 977.84,209.40 975.29,206.97 ZM 291.67 98.13 C295.09,97.87 299.23,97.83 305.19,97.85 C300.30,97.83 295.23,97.95 291.67,98.13 ZM 270.69 185.55 C271.92,188.05 273.58,190.98 274.67,192.54 C273.46,190.91 271.70,187.81 270.69,185.55 ZM 1475.21 321.33 C1474.38,324.90 1473.68,326.75 1472.67,328.70 C1473.59,326.94 1474.44,324.39 1475.21,321.33 ZM 936.48 347.04 C931.78,350.79 926.55,353.78 921.02,355.80 C926.47,353.81 931.76,350.77 936.48,347.04 ZM 221.86 1.07 C222.73,1.23 224.03,1.43 225.56,1.66 C223.98,1.45 222.57,1.25 221.50,1.10 C221.48,1.10 221.48,1.10 221.48,1.09 C221.48,1.08 221.60,1.07 221.86,1.07 ZM 960.47 385.84 C964.24,383.62 969.32,379.45 974.08,374.89 C969.32,379.47 964.32,383.57 960.47,385.84 ZM 1426.33 196.16 C1427.02,196.51 1427.74,196.91 1428.49,197.34 C1424.67,195.25 1420.37,193.23 1416.04,191.48 C1419.40,192.83 1422.81,194.39 1426.33,196.16 ZM 99.01 321.65 C98.71,325.44 98.48,329.21 98.34,332.95 C98.46,329.39 98.66,325.89 98.94,322.49 C98.96,322.21 98.99,321.93 99.01,321.65 ZM 999.43 246.44 C999.78,247.43 1000.14,248.98 1000.36,250.62 C1000.39,250.80 1000.41,250.97 1000.44,251.14 C1000.43,251.08 1000.42,251.01 1000.41,250.95 C1000.14,249.23 999.76,247.51 999.43,246.44 ZM 1621.44 226.82 C1622.60,224.72 1623.82,222.72 1625.10,220.84 C1625.59,220.11 1626.10,219.39 1626.60,218.68 C1624.75,221.28 1623.03,223.99 1621.44,226.82 ZM 239.85 3.59 C242.13,3.92 244.30,4.28 246.45,4.70 C244.33,4.31 242.02,3.92 239.85,3.59 Z" fill="rgb(94,199,119)"/>
<path d="M 143.12 70.87 C134.74,68.42 126.56,66.83 119.54,66.41 C109.12,65.79 106.00,65.28 106.00,64.18 C106.00,63.61 112.37,59.56 118.92,55.82 C111.53,60.05 106.58,63.92 109.25,63.97 C110.21,63.99 111.00,64.38 111.00,64.85 C111.00,65.32 114.96,65.98 119.79,66.32 C126.76,66.82 134.86,68.43 143.12,70.87 ZM 192.26 1.38 C190.53,1.57 188.58,1.76 186.52,1.96 C185.04,2.09 183.57,2.25 182.10,2.42 C175.23,3.01 167.72,4.30 159.94,6.17 C167.13,4.43 174.15,3.16 180.75,2.43 C184.19,2.05 187.00,1.35 187.00,0.87 C187.00,0.38 145.92,0.00 93.50,0.00 L 96.56 0.00 C165.81,0.00 194.90,0.38 192.26,1.38 ZM 119.52 55.49 C121.34,54.46 123.15,53.46 124.83,52.58 C131.16,49.28 151.34,40.84 155.00,39.97 C157.30,39.42 159.43,38.92 161.40,38.47 C151.29,41.06 142.65,44.42 129.50,50.41 C126.02,51.99 122.58,53.76 119.52,55.49 ZM 0.78 192.81 C0.69,190.17 0.61,186.19 0.53,180.96 C0.64,185.32 0.76,187.59 0.90,187.45 C1.19,187.14 1.63,185.58 2.06,183.44 C1.65,186.35 1.22,189.47 0.78,192.81 ZM 225.28 1.01 C226.31,1.48 230.18,2.24 234.75,2.82 C239.70,3.46 243.91,4.13 248.14,5.02 C247.59,4.91 247.03,4.81 246.45,4.70 C244.30,4.28 242.13,3.92 239.85,3.59 C238.48,3.38 237.17,3.19 236.00,3.04 C232.84,2.64 228.84,2.11 225.56,1.66 C224.03,1.43 222.73,1.23 221.86,1.07 C222.41,1.05 223.55,1.03 225.28,1.01 ZM 0.89 227.82 C1.19,230.52 1.50,233.18 1.83,235.81 C1.46,233.84 1.12,232.41 0.89,232.00 C0.89,232.00 0.89,231.99 0.88,231.99 C0.85,231.99 0.81,232.53 0.77,233.57 C0.81,231.29 0.85,229.37 0.89,227.82 ZM 4.08 170.42 C6.08,157.77 8.20,149.80 12.20,139.05 C8.65,148.58 6.34,157.18 4.08,170.42 ZM 1368.00 184.33 C1328.94,186.03 1298.49,204.92 1282.24,237.50 C1295.21,211.50 1316.97,194.47 1347.00,186.83 C1353.57,185.16 1362.61,184.29 1371.96,184.20 C1370.67,184.23 1369.35,184.27 1368.00,184.33 ZM 10.25 281.60 C8.32,274.00 6.69,266.35 5.31,258.56 C6.36,264.27 7.51,269.84 8.78,275.31 C9.26,277.45 9.75,279.55 10.25,281.60 ZM 371.68 274.23 C374.12,264.91 376.15,255.48 377.74,246.00 C377.82,245.54 377.89,245.08 377.96,244.62 C377.87,245.28 377.77,245.90 377.68,246.50 C376.17,255.56 374.15,264.88 371.68,274.23 ZM 225.80 33.94 C230.07,34.30 233.91,34.78 237.00,35.36 C248.70,37.58 258.26,40.00 263.50,42.07 C258.36,40.04 248.68,37.58 237.50,35.47 C234.17,34.84 230.16,34.32 225.80,33.94 ZM 118.37 20.64 L 118.36 20.64 C111.70,23.71 105.36,27.04 99.58,30.55 C105.36,27.04 111.70,23.71 118.37,20.64 Z" fill="rgb(144,218,163)"/>
<path d="M 0.03 405.75 C0.05,309.36 0.43,231.18 0.89,232.00 C1.35,232.82 2.27,237.77 2.95,243.00 C7.16,275.64 15.52,305.06 29.66,337.00 C60.26,406.14 110.92,460.74 164.00,481.80 C181.29,488.66 203.55,491.46 221.28,489.00 C229.75,487.83 232.88,487.03 247.50,482.33 C258.13,478.92 271.72,471.33 289.68,458.81 C305.89,447.50 334.02,418.97 345.52,402.17 C348.03,398.50 352.09,392.66 354.54,389.19 C356.99,385.71 359.00,382.60 359.00,382.26 C359.00,381.93 359.66,380.93 360.47,380.03 C364.32,375.78 387.00,331.86 387.00,328.66 C387.00,327.71 388.07,324.81 389.38,322.22 C392.27,316.49 399.68,294.77 401.57,286.50 C402.32,283.20 403.82,277.01 404.90,272.74 C406.76,265.35 408.63,253.71 410.95,235.00 C412.48,222.66 412.24,196.37 410.46,181.97 C408.86,168.97 405.52,152.94 403.69,149.50 C403.11,148.40 402.31,145.70 401.92,143.50 C400.44,135.16 394.54,121.56 384.79,103.95 C379.28,94.00 379.08,93.70 369.79,81.19 C347.04,50.57 310.68,24.63 273.00,12.13 C255.90,6.46 247.96,4.52 234.75,2.82 C229.39,2.13 225.00,1.22 225.00,0.79 C225.00,0.35 580.72,0.00 1015.50,0.00 L 1806.00 0.00 L 1806.00 56.70 C1806.00,100.80 1805.73,113.13 1804.80,112.20 C1803.95,111.35 1797.78,111.00 1783.41,111.00 C1765.92,111.00 1763.13,111.21 1762.61,112.58 C1762.27,113.45 1762.00,136.55 1762.00,163.92 C1762.00,191.28 1761.70,213.97 1761.33,214.34 C1760.95,214.71 1757.47,211.71 1753.58,207.66 C1747.71,201.57 1736.52,193.00 1734.42,193.00 C1734.12,193.00 1731.54,191.91 1728.69,190.58 C1719.36,186.23 1712.93,184.82 1700.00,184.28 C1667.73,182.93 1642.40,195.29 1625.10,220.84 C1612.16,239.95 1604.75,271.06 1606.50,298.93 C1610.21,358.02 1642.71,395.34 1692.50,397.68 C1704.68,398.26 1718.19,395.99 1725.61,392.12 C1727.75,391.01 1731.41,389.19 1733.74,388.09 C1739.50,385.36 1747.85,379.07 1755.00,372.08 C1758.26,368.89 1761.18,366.51 1761.47,366.80 C1761.76,367.09 1762.00,372.36 1762.00,378.51 C1762.00,387.89 1762.28,389.94 1763.75,391.27 C1765.23,392.61 1768.35,392.82 1784.00,392.65 C1794.18,392.53 1803.29,392.07 1804.25,391.61 C1805.91,390.83 1806.00,395.67 1806.00,485.89 L 1806.00 581.00 L 1012.75 580.87 C576.46,580.80 222.65,580.38 226.50,579.95 C244.72,577.92 260.82,574.42 272.65,569.95 C276.11,568.64 280.20,562.43 280.73,557.67 C281.30,552.67 278.55,546.24 274.81,543.80 C268.75,539.86 265.93,539.74 253.36,542.85 C234.70,547.47 226.14,548.48 206.00,548.43 C187.22,548.38 177.11,547.32 164.50,544.09 C145.54,539.23 141.71,539.08 136.66,543.05 C129.44,548.73 129.18,561.21 136.16,567.66 C141.05,572.18 165.55,577.95 190.00,580.34 C191.93,580.53 149.96,580.75 96.75,580.84 L 0.00 581.00 L 0.03 405.75 ZM 847.36 469.12 C848.84,467.89 849.00,462.92 849.02,418.13 C849.02,390.62 849.43,367.87 849.93,367.08 C850.62,365.99 852.47,367.37 858.16,373.22 C866.48,381.78 874.78,387.47 885.28,391.84 C893.55,395.28 907.51,397.99 917.00,398.00 C930.55,398.00 948.13,393.09 960.47,385.84 C968.76,380.97 982.29,367.64 987.43,359.28 C992.11,351.68 998.00,339.92 998.00,338.18 C998.00,337.42 998.64,335.38 999.42,333.65 C1003.35,324.97 1006.57,299.55 1005.68,284.21 C1004.96,271.55 1003.09,257.95 1001.87,256.40 C1001.39,255.79 1000.71,253.19 1000.36,250.62 C1000.01,248.05 999.33,245.71 998.86,245.41 C998.39,245.12 997.99,244.12 997.98,243.19 C997.88,236.57 985.32,216.52 975.24,206.92 C964.26,196.47 957.91,192.71 942.50,187.54 C931.44,183.83 909.57,182.85 898.00,185.54 C881.70,189.34 864.69,198.92 855.06,209.73 C852.28,212.85 849.94,215.20 849.86,214.95 C849.78,214.70 849.45,208.88 849.11,202.00 L 848.50 189.50 L 828.63 189.23 C814.82,189.04 808.34,189.31 807.38,190.10 C806.22,191.06 806.00,213.26 806.00,329.57 L 806.00 467.89 L 808.25 469.51 C810.17,470.90 813.07,471.09 828.11,470.81 C841.10,470.57 846.15,470.12 847.36,469.12 ZM 651.00 396.54 C673.08,391.84 681.74,387.75 697.61,374.54 C702.49,370.49 706.82,367.39 707.24,367.65 C707.66,367.91 708.00,373.01 708.00,378.99 C708.00,387.09 708.36,390.22 709.43,391.29 C710.56,392.42 714.86,392.77 729.54,392.92 C745.95,393.09 748.44,392.91 750.11,391.40 C751.94,389.74 752.00,386.57 752.00,290.55 C752.00,214.77 751.72,191.12 750.80,190.20 C749.95,189.35 743.91,189.00 730.00,189.00 C716.09,189.00 710.05,189.35 709.20,190.20 C708.29,191.11 708.00,208.41 708.00,261.95 L 708.00 332.49 L 700.19 340.00 C687.21,352.48 671.67,359.00 654.89,359.00 C635.47,359.00 624.60,353.06 617.91,338.78 L 614.50 331.50 L 614.00 261.50 C613.72,223.00 613.14,190.94 612.69,190.25 C611.44,188.32 572.68,188.47 571.07,190.41 C570.19,191.48 569.98,211.15 570.23,269.66 C570.56,345.77 570.62,347.67 572.72,355.17 C574.76,362.41 576.23,365.72 581.12,374.00 C587.56,384.93 603.11,394.15 619.83,396.98 C627.44,398.26 644.02,398.03 651.00,396.54 ZM 1393.50 396.46 C1414.25,392.91 1428.66,385.99 1444.35,372.03 C1449.70,367.28 1453.11,363.36 1461.82,352.00 C1464.49,348.51 1471.00,335.38 1471.00,333.48 C1471.00,332.61 1471.75,330.46 1472.67,328.70 C1474.47,325.24 1475.27,322.07 1477.62,309.00 C1479.41,299.03 1479.07,274.46 1477.04,266.50 C1472.37,248.22 1466.23,233.63 1459.19,224.05 C1452.63,215.13 1436.07,201.08 1426.33,196.16 C1407.17,186.50 1391.43,183.31 1368.00,184.33 C1328.94,186.03 1298.49,204.92 1282.24,237.50 C1273.01,256.02 1269.47,272.86 1270.36,294.00 C1271.19,313.79 1274.74,328.23 1282.49,343.43 C1297.09,372.04 1322.53,390.56 1355.45,396.54 C1365.27,398.32 1382.80,398.28 1393.50,396.46 ZM 1089.00 391.00 C1090.96,389.04 1091.00,387.67 1091.00,318.58 L 1091.00 248.15 L 1093.66 244.99 C1100.19,237.23 1117.71,227.03 1128.70,224.60 C1132.66,223.72 1140.11,223.00 1145.27,223.00 C1160.97,223.00 1171.22,227.25 1177.34,236.29 C1184.59,247.00 1184.38,244.58 1184.77,321.47 C1184.96,360.93 1185.50,390.90 1186.03,391.53 C1186.62,392.24 1193.75,392.72 1206.25,392.89 C1224.29,393.13 1225.67,393.02 1227.32,391.20 C1228.97,389.37 1229.06,384.53 1228.79,310.38 C1228.52,237.77 1228.36,231.19 1226.75,227.63 C1225.79,225.50 1225.00,223.01 1225.00,222.10 C1225.00,218.77 1218.20,206.38 1213.91,201.89 C1206.63,194.28 1199.15,190.02 1186.50,186.31 C1181.89,184.95 1176.79,184.54 1164.50,184.52 C1145.38,184.50 1134.26,186.74 1121.50,193.20 C1112.47,197.77 1109.39,199.87 1098.60,208.76 L 1091.00 215.02 L 1091.00 164.70 C1091.00,125.97 1090.71,113.99 1089.75,112.67 C1088.62,111.13 1086.39,110.98 1068.00,111.23 L 1047.50 111.50 L 1047.25 250.42 C1047.01,378.61 1047.12,389.48 1048.65,391.17 C1050.14,392.82 1052.14,393.00 1068.66,393.00 C1085.67,393.00 1087.15,392.85 1089.00,391.00 ZM 1562.56 391.58 C1564.46,390.19 1564.50,387.61 1564.50,252.23 C1564.50,135.99 1564.28,114.04 1563.11,112.63 C1561.88,111.15 1559.40,110.99 1541.61,111.23 L 1521.50 111.50 L 1521.24 251.00 C1521.00,381.26 1521.10,390.58 1522.68,391.75 C1525.27,393.65 1559.93,393.50 1562.56,391.58 ZM 191.24 456.49 C175.91,452.75 160.80,441.79 151.43,427.60 C144.85,417.64 143.12,414.15 138.87,402.22 C132.27,383.68 129.47,362.18 130.31,336.50 C131.10,312.52 133.42,296.82 139.89,271.50 C141.43,265.50 150.39,240.33 153.38,233.63 C154.82,230.39 156.00,227.00 156.00,226.08 C156.00,225.15 156.40,223.97 156.89,223.45 C157.38,222.93 160.81,216.68 164.53,209.56 C173.13,193.08 185.40,174.74 198.65,158.59 C205.87,149.79 206.40,149.64 211.13,155.00 C256.79,206.80 285.67,286.65 282.55,352.47 C279.91,408.31 258.74,444.85 222.64,455.90 C214.69,458.34 199.92,458.61 191.24,456.49 ZM 309.30 392.27 C309.62,390.20 310.62,384.45 311.53,379.50 C313.74,367.45 314.62,331.66 313.07,316.77 C311.89,305.37 309.39,289.44 308.57,288.12 C308.33,287.73 307.40,283.21 306.52,278.09 C305.63,272.96 304.32,266.91 303.60,264.64 C302.89,262.36 301.07,256.45 299.56,251.50 C298.05,246.55 296.18,241.31 295.40,239.85 C294.63,238.39 294.00,236.69 294.00,236.07 C294.00,232.57 278.86,198.41 274.76,192.67 C273.52,190.93 271.46,187.25 270.19,184.50 C266.34,176.16 253.58,157.18 244.19,145.83 C233.88,133.37 230.00,128.47 230.00,127.93 C230.00,126.58 247.17,115.22 256.44,110.42 C267.04,104.94 280.78,99.66 287.50,98.49 C289.70,98.11 297.66,97.82 305.19,97.85 L 318.89 97.90 L 329.19 102.79 C341.56,108.65 348.77,114.35 356.24,124.17 C366.27,137.33 372.79,152.65 377.24,173.50 C379.10,182.20 379.39,186.88 379.44,209.50 C379.49,229.91 379.12,237.76 377.74,246.00 C369.20,296.93 348.03,346.41 318.09,385.46 C314.74,389.83 312.00,393.72 312.00,394.10 C312.00,394.48 311.26,395.07 310.37,395.41 C308.98,395.95 308.82,395.48 309.30,392.27 ZM 94.82 386.25 C84.52,372.26 69.00,348.89 69.00,347.37 C69.00,347.01 65.93,340.37 62.17,332.61 C58.42,324.85 54.79,316.92 54.10,315.00 C53.42,313.08 50.93,306.10 48.57,299.50 C41.27,279.05 38.82,269.64 35.43,249.00 C33.03,234.41 32.71,229.78 32.69,209.00 C32.67,185.11 33.25,179.82 37.57,164.41 C38.36,161.61 39.00,158.40 39.00,157.27 C39.00,156.15 42.32,148.50 46.39,140.29 C53.09,126.75 54.53,124.61 61.83,117.23 C68.47,110.53 71.52,108.31 79.19,104.58 C91.67,98.53 96.50,97.64 113.47,98.24 C129.67,98.81 136.58,100.68 153.50,109.08 C164.09,114.33 179.63,124.41 181.31,127.11 C182.11,128.40 180.69,130.65 174.39,138.11 C132.06,188.27 104.42,255.81 98.94,322.49 C97.47,340.37 98.20,360.91 100.99,380.00 C102.08,387.42 102.97,393.84 102.98,394.25 C103.04,396.49 100.59,394.09 94.82,386.25 ZM 1695.00 357.17 C1682.99,353.77 1672.08,346.62 1665.96,338.13 C1654.27,321.91 1649.63,301.93 1652.06,278.29 C1653.17,267.56 1653.71,265.57 1658.09,256.21 C1668.44,234.09 1685.32,223.02 1708.71,222.99 C1726.93,222.96 1742.51,229.58 1755.75,242.98 L 1762.00 249.30 L 1762.00 290.45 L 1762.00 331.60 L 1756.96 337.25 C1750.33,344.70 1739.09,352.10 1729.35,355.45 C1718.73,359.09 1704.33,359.82 1695.00,357.17 ZM 0.00 94.20 L 0.00 0.00 L 93.50 0.00 C145.92,0.00 187.00,0.38 187.00,0.87 C187.00,1.35 184.19,2.05 180.75,2.43 C154.56,5.31 121.60,16.87 98.35,31.31 C57.57,56.65 30.03,91.07 12.21,139.00 C7.42,151.89 5.32,160.78 2.89,178.50 C2.29,182.90 1.39,186.93 0.90,187.45 C0.37,188.01 0.00,149.74 0.00,94.20 ZM 202.68 102.94 C200.62,100.53 181.06,87.63 171.87,82.62 C155.92,73.92 135.11,67.41 119.79,66.32 C114.96,65.98 111.00,65.32 111.00,64.85 C111.00,64.38 110.21,63.99 109.25,63.97 C105.42,63.90 117.24,55.98 129.50,50.41 C149.92,41.12 159.44,38.16 180.50,34.55 C194.26,32.19 222.59,32.65 237.50,35.47 C248.68,37.58 258.36,40.04 263.50,42.07 C273.73,46.11 286.39,52.03 293.67,56.17 C303.19,61.59 305.77,63.56 304.70,64.64 C304.32,65.01 299.62,65.66 294.26,66.08 C267.89,68.13 240.14,79.75 213.70,99.83 C209.96,102.68 206.34,105.00 205.67,105.00 C205.00,105.00 203.65,104.07 202.68,102.94 ZM 889.29 357.56 C876.61,354.67 862.41,345.98 853.71,335.80 L 849.00 330.28 L 849.00 291.04 C849.00,256.86 849.21,251.36 850.63,248.37 C854.27,240.70 872.64,228.68 887.25,224.41 C895.48,222.00 914.08,222.94 922.50,226.19 C948.73,236.30 963.30,265.28 959.87,300.51 C959.07,308.76 955.03,322.35 951.21,329.68 C945.26,341.10 933.57,351.21 921.02,355.80 C912.77,358.82 898.32,359.62 889.29,357.56 ZM 1364.00 358.31 C1342.04,354.62 1324.06,336.06 1318.02,310.85 C1315.59,300.74 1315.29,281.76 1317.41,272.00 C1321.88,251.34 1333.24,235.86 1349.91,227.70 L 1358.50 223.50 L 1373.50 223.50 C1385.79,223.50 1389.31,223.84 1393.00,225.35 C1395.47,226.37 1399.05,227.72 1400.95,228.35 C1402.97,229.02 1408.00,233.04 1413.06,238.00 C1422.91,247.66 1427.55,255.80 1431.04,269.50 C1433.88,280.68 1434.15,299.74 1431.60,310.00 C1424.05,340.41 1401.79,359.30 1374.00,358.85 C1369.88,358.78 1365.38,358.54 1364.00,358.31 Z" fill="rgb(254,254,254)"/>
</g>
</svg>